<?xml version="1.0" encoding="UTF-8"?>
<!DOCTYPE svg PUBLIC "-//W3C//DTD SVG 1.1//EN" "http://www.w3.org/Graphics/SVG/1.1/DTD/svg11.dtd">
<!-- Creator: CorelDRAW 2021 (64-Bit) -->
<svg xmlns="http://www.w3.org/2000/svg" xml:space="preserve" width="85.9646mm" height="12.581mm" version="1.1" style="shape-rendering:geometricPrecision; text-rendering:geometricPrecision; image-rendering:optimizeQuality; fill-rule:evenodd; clip-rule:evenodd"
viewBox="0 0 1125.92 164.78"
 xmlns:xlink="http://www.w3.org/1999/xlink"
 xmlns:xodm="http://www.corel.com/coreldraw/odm/2003">
 <defs>
  <style type="text/css">
   <![CDATA[
    .fil0 {fill:white}
   ]]>
  </style>
 </defs>
 <g id="Capa_x0020_1">
  <metadata id="CorelCorpID_0Corel-Layer"/>
  <path class="fil0" d="M123.76 18.2c-11.39,-3.29 -36.81,-8.62 -38.96,-8.62 -4.06,0 -8.12,0 -12.18,0 -2.15,0 -27.57,5.34 -38.96,8.62 -11.39,3.29 -19.82,23.55 -24.53,28.7l-3.84 15.87 7.27 -4.54c0,0 -2.99,3.9 -7.65,47.05l6.87 -2.8 -0.72 14.84 6.2 0c0,0 23.07,25.53 30.75,34.37 7.68,8.84 9.66,13.09 18.02,13.09 8.46,0 16.92,0 25.38,0 8.36,0 10.34,-4.25 18.02,-13.09 7.68,-8.84 30.75,-34.37 30.75,-34.37l6.19 0 -0.72 -14.84 6.87 2.8c-4.66,-43.15 -7.65,-47.05 -7.65,-47.05l7.27 4.54 -3.84 -15.87c-4.71,-5.15 -13.14,-25.41 -24.53,-28.7zm401.11 9.14c0,-1.47 0.5,-2.58 1.47,-3.31 0.97,-0.73 2.34,-1.42 4.14,-2.08l16.1 -5.6c0.24,-0.05 0.47,-0.07 0.68,-0.07 0.21,0 0.4,0 0.59,0 1.75,0 2.93,0.5 3.52,1.51 0.59,1.02 0.87,2.36 0.87,4.02l-0.07 19.51 9.72 0c1.51,0 2.74,0.45 3.69,1.35 0.95,0.9 1.42,2.25 1.42,4.04l0 13.69c0,1.99 -0.47,3.43 -1.42,4.35 -0.95,0.92 -2.18,1.39 -3.69,1.39l-9.72 0 0.07 59.87c0,1.8 -0.52,3.15 -1.56,4.07 -1.04,0.92 -2.48,1.39 -4.33,1.39l-16.03 0c-3.64,0 -5.46,-1.82 -5.46,-5.46l-0.07 -59.87 -7.31 0c-3.64,0 -5.46,-1.91 -5.46,-5.75l0 -13.69c0,-3.6 1.82,-5.39 5.46,-5.39l7.31 0 0.07 -13.98zm530.04 19.34c0,-0.9 0.17,-1.68 0.5,-2.34 0.33,-0.66 0.78,-1.21 1.32,-1.63 0.54,-0.43 1.16,-0.76 1.84,-0.97 0.69,-0.21 1.35,-0.31 2.01,-0.31l10.71 0c1.18,0 2.13,0.35 2.84,1.06 0.71,0.71 1.32,1.61 1.82,2.7 0.5,1.09 0.92,2.29 1.3,3.62 0.38,1.33 0.83,2.6 1.35,3.83 1.42,-1.58 2.84,-3.12 4.23,-4.63 1.39,-1.51 2.88,-2.86 4.49,-4.04 1.61,-1.2 3.38,-2.15 5.3,-2.89 1.91,-0.73 4.09,-1.11 6.55,-1.11 2.55,0 4.85,0.19 6.86,0.57 2.01,0.38 3.9,0.95 5.7,1.68 1.8,0.73 3.59,1.66 5.37,2.81 1.77,1.14 3.69,2.46 5.77,3.97 2.03,1.18 3.05,2.58 3.05,4.21 0,1.04 -0.4,2.25 -1.21,3.62l-6.45 11.02c-1.28,1.84 -2.86,2.77 -4.75,2.77 -0.95,0 -2.01,-0.26 -3.19,-0.78 -2.03,-1.99 -4.09,-3.47 -6.19,-4.44 -2.11,-0.97 -4.52,-1.44 -7.21,-1.44 -1.85,0 -3.45,0.26 -4.85,0.78 -1.39,0.52 -2.67,1.25 -3.81,2.2 -1.13,0.95 -2.2,2.08 -3.19,3.41 -0.99,1.33 -1.99,2.79 -2.98,4.4l0 51.36c0,1.8 -0.43,3.14 -1.3,4.07 -0.87,0.92 -2.34,1.39 -4.37,1.39l-15.96 0c-3.69,0 -5.53,-1.82 -5.53,-5.46l0 -79.4zm-11.45 79.59c0,0.8 -0.14,1.56 -0.43,2.29 -0.28,0.73 -0.76,1.33 -1.42,1.75 -0.52,0.52 -1.14,0.85 -1.84,0.99 -0.71,0.14 -1.32,0.21 -1.84,0.21l-13.98 0c-0.99,0 -1.8,-0.14 -2.41,-0.4 -0.62,-0.26 -1.11,-0.62 -1.49,-1.09 -0.38,-0.47 -0.68,-1.06 -0.95,-1.75 -0.26,-0.68 -0.54,-1.42 -0.83,-2.22l-0.92 -3.19c-1.28,1.28 -2.72,2.53 -4.35,3.76 -1.63,1.23 -3.43,2.34 -5.39,3.31 -1.96,0.97 -4.07,1.75 -6.31,2.34 -2.25,0.59 -4.59,0.9 -7,0.9 -4.3,0 -8.42,-0.54 -12.37,-1.63 -3.95,-1.09 -7.64,-2.65 -11.07,-4.66 -3.43,-2.01 -6.55,-4.42 -9.34,-7.24 -2.79,-2.81 -5.18,-5.96 -7.19,-9.41 -2.01,-3.45 -3.57,-7.19 -4.66,-11.18 -1.09,-4 -1.63,-8.16 -1.63,-12.53 0,-6.57 1.21,-12.68 3.62,-18.35 2.41,-5.65 5.7,-10.57 9.86,-14.75 4.16,-4.19 9.06,-7.47 14.68,-9.86 5.63,-2.39 11.66,-3.59 18.09,-3.59 2.93,0 5.67,0.33 8.21,0.99 2.53,0.66 4.85,1.56 6.95,2.69 2.1,1.16 3.99,2.51 5.7,4.09 1.7,1.61 3.19,3.31 4.47,5.18l2.06 -6.53c0.47,-1.18 0.87,-2.15 1.18,-2.91 0.31,-0.73 0.64,-1.28 0.99,-1.63 0.35,-0.35 0.78,-0.59 1.3,-0.71 0.52,-0.12 1.25,-0.19 2.2,-0.19l10.57 0c0.52,0 1.13,0.07 1.84,0.21 0.71,0.14 1.32,0.47 1.84,0.99 0.66,0.52 1.14,1.11 1.42,1.77 0.28,0.66 0.43,1.42 0.43,2.27l0 80.07zm-69.87 -39.75c0,3.12 0.5,6.05 1.47,8.75 0.97,2.72 2.34,5.08 4.14,7.05 1.8,1.99 3.97,3.57 6.5,4.73 2.53,1.16 5.32,1.73 8.4,1.73 3.17,0 6.12,-0.57 8.84,-1.73 2.72,-1.16 5.08,-2.74 7.09,-4.73 2.01,-1.96 3.57,-4.33 4.71,-7.05 1.14,-2.7 1.7,-5.63 1.7,-8.75 0,-3 -0.57,-5.89 -1.7,-8.63 -1.13,-2.74 -2.7,-5.15 -4.71,-7.21 -2.01,-2.08 -4.37,-3.74 -7.09,-4.94 -2.72,-1.2 -5.68,-1.8 -8.84,-1.8 -3.08,0 -5.87,0.59 -8.4,1.8 -2.53,1.21 -4.71,2.86 -6.5,4.94 -1.8,2.06 -3.17,4.47 -4.14,7.21 -0.97,2.74 -1.47,5.63 -1.47,8.63zm-63.93 -66.49c0,-1.51 0.38,-2.79 1.13,-3.83 0.76,-1.04 2.06,-1.56 3.9,-1.56l17.38 0c0.47,0 0.97,0.12 1.49,0.38 0.52,0.26 1.02,0.64 1.47,1.11 0.45,0.47 0.83,1.04 1.14,1.7 0.31,0.66 0.45,1.39 0.45,2.2l0 105.98c0,1.8 -0.5,3.15 -1.51,4.07 -1.02,0.92 -2.34,1.39 -3.95,1.39l-16.46 0c-1.85,0 -3.15,-0.47 -3.9,-1.39 -0.76,-0.92 -1.13,-2.27 -1.13,-4.07l0 -105.98zm-104.58 66.49c0,-4.35 0.57,-8.54 1.68,-12.56 1.11,-4.02 2.67,-7.76 4.68,-11.19 2.01,-3.43 4.42,-6.55 7.24,-9.36 2.81,-2.81 5.94,-5.23 9.39,-7.21 3.45,-1.99 7.19,-3.52 11.18,-4.61 4,-1.09 8.16,-1.63 12.51,-1.63 6.43,0 12.49,1.21 18.14,3.59 5.65,2.39 10.57,5.68 14.75,9.86 4.18,4.19 7.5,9.1 9.93,14.75 2.44,5.68 3.64,11.78 3.64,18.35 0,4.37 -0.54,8.54 -1.65,12.53 -1.11,4 -2.67,7.73 -4.68,11.18 -2.01,3.45 -4.42,6.6 -7.24,9.41 -2.81,2.81 -5.96,5.23 -9.41,7.24 -3.45,2.01 -7.14,3.57 -11.09,4.66 -3.95,1.09 -8.09,1.63 -12.39,1.63 -4.35,0 -8.51,-0.54 -12.51,-1.63 -4,-1.09 -7.73,-2.65 -11.18,-4.66 -3.45,-2.01 -6.57,-4.42 -9.39,-7.24 -2.81,-2.81 -5.22,-5.96 -7.24,-9.41 -2.01,-3.45 -3.57,-7.19 -4.68,-11.18 -1.11,-4 -1.68,-8.16 -1.68,-12.53zm25.89 0c0,3.12 0.5,6.05 1.47,8.75 0.97,2.72 2.34,5.08 4.11,7.05 1.77,1.99 3.93,3.57 6.46,4.73 2.53,1.16 5.37,1.73 8.54,1.73 3.07,0 5.86,-0.57 8.35,-1.73 2.48,-1.16 4.59,-2.74 6.31,-4.73 1.73,-1.96 3.05,-4.33 3.97,-7.05 0.92,-2.7 1.37,-5.63 1.37,-8.75 0,-3 -0.45,-5.89 -1.37,-8.63 -0.92,-2.74 -2.25,-5.15 -3.97,-7.21 -1.73,-2.08 -3.83,-3.74 -6.31,-4.94 -2.48,-1.2 -5.27,-1.8 -8.35,-1.8 -3.17,0 -6.01,0.59 -8.54,1.8 -2.53,1.21 -4.68,2.86 -6.46,4.94 -1.77,2.06 -3.14,4.47 -4.11,7.21 -0.97,2.74 -1.47,5.63 -1.47,8.63zm-129.55 -44.36c0.61,-0.52 1.25,-0.85 1.91,-0.99 0.66,-0.14 1.3,-0.21 1.91,-0.21l10.67 0c0.9,0 1.65,0.14 2.25,0.43 0.57,0.28 1.06,0.68 1.44,1.18 0.38,0.5 0.69,1.06 0.95,1.73 0.26,0.64 0.52,1.35 0.76,2.1l2.96 8.65c1.32,-1.7 2.67,-3.45 4.02,-5.23 1.35,-1.77 2.93,-3.41 4.78,-4.85 1.84,-1.44 4.04,-2.65 6.6,-3.59 2.55,-0.95 5.68,-1.42 9.36,-1.42 6.48,0 12.46,1.21 17.93,3.59 5.46,2.39 10.17,5.68 14.12,9.86 3.95,4.19 7.02,9.1 9.25,14.75 2.22,5.68 3.33,11.78 3.33,18.35 0,6.55 -1.11,12.65 -3.33,18.33 -2.22,5.68 -5.3,10.62 -9.25,14.8 -3.95,4.19 -8.65,7.5 -14.12,9.91 -5.46,2.41 -11.45,3.62 -17.93,3.62 -3.07,0 -5.72,-0.38 -7.94,-1.11 -2.22,-0.73 -4.19,-1.68 -5.91,-2.86 -1.72,-1.18 -3.26,-2.48 -4.59,-3.9 -1.32,-1.42 -2.62,-2.84 -3.9,-4.26l0 33.06c0,1.42 -0.43,2.62 -1.28,3.62 -0.85,0.99 -2.18,1.49 -3.95,1.49l-16.2 0c-0.57,0 -1.18,-0.12 -1.84,-0.35 -0.66,-0.24 -1.28,-0.57 -1.85,-0.99 -0.57,-0.43 -1.04,-0.97 -1.42,-1.61 -0.38,-0.64 -0.57,-1.35 -0.57,-2.15l0 -107.9c0,-0.95 0.19,-1.72 0.54,-2.34 0.35,-0.62 0.78,-1.18 1.3,-1.7zm66.26 44.41c0,-3.03 -0.5,-5.91 -1.49,-8.63 -0.99,-2.72 -2.39,-5.08 -4.19,-7.12 -1.8,-2.03 -3.95,-3.64 -6.46,-4.82 -2.51,-1.18 -5.27,-1.77 -8.3,-1.77 -2.98,0 -5.79,0.54 -8.47,1.65 -2.67,1.11 -5.01,2.62 -7.02,4.54 -2.01,1.92 -3.64,4.19 -4.89,6.79 -1.25,2.6 -1.96,5.37 -2.1,8.3l0 1.06c0,3.12 0.59,6.05 1.77,8.8 1.18,2.74 2.79,5.11 4.83,7.12 2.03,2.01 4.42,3.62 7.16,4.8 2.74,1.18 5.65,1.77 8.73,1.77 3.03,0 5.79,-0.59 8.3,-1.77 2.51,-1.18 4.66,-2.79 6.46,-4.8 1.8,-2.01 3.19,-4.37 4.19,-7.12 0.99,-2.74 1.49,-5.68 1.49,-8.8zm-106.78 -39.66c0,-1.51 0.43,-2.81 1.28,-3.9 0.85,-1.09 2.18,-1.63 3.97,-1.63l16.24 0c0.57,0 1.18,0.12 1.84,0.38 0.66,0.26 1.28,0.64 1.84,1.13 0.57,0.5 1.06,1.09 1.47,1.75 0.4,0.66 0.59,1.42 0.59,2.27l0 79.1c0,1.8 -0.5,3.15 -1.49,4.07 -0.99,0.92 -2.41,1.39 -4.26,1.39l-16.24 0c-3.5,0 -5.25,-1.82 -5.25,-5.46l0 -79.1zm0 -35.89c0,-1.99 0.43,-3.41 1.28,-4.23 0.85,-0.83 2.18,-1.23 3.97,-1.23l16.46 0c1.66,0 3,0.4 4.02,1.23 1.02,0.83 1.51,2.25 1.51,4.23l0 13.83c0,0.57 -0.12,1.18 -0.38,1.85 -0.26,0.66 -0.64,1.3 -1.11,1.91 -0.47,0.61 -1.04,1.11 -1.73,1.51 -0.68,0.4 -1.47,0.62 -2.32,0.62l-16.46 0c-3.5,0 -5.25,-1.96 -5.25,-5.89l0 -13.83zm-82.45 35.66c0,-0.9 0.17,-1.68 0.5,-2.34 0.33,-0.66 0.78,-1.21 1.32,-1.63 0.54,-0.43 1.16,-0.76 1.85,-0.97 0.68,-0.21 1.35,-0.31 2.01,-0.31l10.71 0c1.18,0 2.13,0.35 2.84,1.06 0.71,0.71 1.32,1.61 1.82,2.7 0.5,1.09 0.92,2.29 1.3,3.62 0.38,1.33 0.83,2.6 1.35,3.83 1.42,-1.58 2.84,-3.12 4.23,-4.63 1.39,-1.51 2.88,-2.86 4.49,-4.04 1.61,-1.2 3.38,-2.15 5.3,-2.89 1.91,-0.73 4.09,-1.11 6.55,-1.11 2.55,0 4.85,0.19 6.86,0.57 2.01,0.38 3.9,0.95 5.7,1.68 1.8,0.73 3.59,1.66 5.37,2.81 1.77,1.14 3.69,2.46 5.77,3.97 2.03,1.18 3.05,2.58 3.05,4.21 0,1.04 -0.4,2.25 -1.21,3.62l-6.46 11.02c-1.28,1.84 -2.86,2.77 -4.75,2.77 -0.95,0 -2.01,-0.26 -3.19,-0.78 -2.03,-1.99 -4.09,-3.47 -6.2,-4.44 -2.1,-0.97 -4.52,-1.44 -7.21,-1.44 -1.84,0 -3.45,0.26 -4.85,0.78 -1.39,0.52 -2.67,1.25 -3.81,2.2 -1.14,0.95 -2.2,2.08 -3.19,3.41 -0.99,1.33 -1.99,2.79 -2.98,4.4l0 51.36c0,1.8 -0.43,3.14 -1.3,4.07 -0.87,0.92 -2.34,1.39 -4.37,1.39l-15.96 0c-3.69,0 -5.53,-1.82 -5.53,-5.46l0 -79.4zm-343.45 39.85c0,-4.35 0.57,-8.54 1.68,-12.56 1.11,-4.02 2.67,-7.76 4.68,-11.19 2.01,-3.43 4.42,-6.55 7.24,-9.36 2.81,-2.81 5.94,-5.23 9.39,-7.21 3.45,-1.99 7.19,-3.52 11.18,-4.61 4,-1.09 8.16,-1.63 12.51,-1.63 6.43,0 12.49,1.21 18.14,3.59 5.65,2.39 10.57,5.68 14.76,9.86 4.18,4.19 7.5,9.1 9.93,14.75 2.44,5.68 3.64,11.78 3.64,18.35 0,4.37 -0.54,8.54 -1.65,12.53 -1.11,4 -2.67,7.73 -4.68,11.18 -2.01,3.45 -4.42,6.6 -7.24,9.41 -2.81,2.81 -5.96,5.23 -9.41,7.24 -3.45,2.01 -7.14,3.57 -11.09,4.66 -3.95,1.09 -8.09,1.63 -12.39,1.63 -4.35,0 -8.51,-0.54 -12.51,-1.63 -4,-1.09 -7.73,-2.65 -11.18,-4.66 -3.45,-2.01 -6.57,-4.42 -9.39,-7.24 -2.81,-2.81 -5.23,-5.96 -7.24,-9.41 -2.01,-3.45 -3.57,-7.19 -4.68,-11.18 -1.11,-4 -1.68,-8.16 -1.68,-12.53zm173.47 0c0,-4.35 0.57,-8.54 1.68,-12.56 1.11,-4.02 2.67,-7.76 4.68,-11.19 2.01,-3.43 4.42,-6.55 7.24,-9.36 2.81,-2.81 5.94,-5.23 9.39,-7.21 3.45,-1.99 7.19,-3.52 11.18,-4.61 4,-1.09 8.16,-1.63 12.51,-1.63 6.43,0 12.49,1.21 18.14,3.59 5.65,2.39 10.57,5.68 14.75,9.86 4.18,4.19 7.5,9.1 9.93,14.75 2.44,5.68 3.64,11.78 3.64,18.35 0,4.37 -0.54,8.54 -1.65,12.53 -1.11,4 -2.67,7.73 -4.68,11.18 -2.01,3.45 -4.42,6.6 -7.24,9.41 -2.81,2.81 -5.96,5.23 -9.41,7.24 -3.45,2.01 -7.14,3.57 -11.09,4.66 -3.95,1.09 -8.09,1.63 -12.39,1.63 -4.35,0 -8.51,-0.54 -12.51,-1.63 -4,-1.09 -7.73,-2.65 -11.18,-4.66 -3.45,-2.01 -6.57,-4.42 -9.39,-7.24 -2.81,-2.81 -5.22,-5.96 -7.24,-9.41 -2.01,-3.45 -3.57,-7.19 -4.68,-11.18 -1.11,-4 -1.68,-8.16 -1.68,-12.53zm25.89 0c0,3.12 0.5,6.05 1.47,8.75 0.97,2.72 2.34,5.08 4.11,7.05 1.77,1.99 3.93,3.57 6.46,4.73 2.53,1.16 5.37,1.73 8.54,1.73 3.07,0 5.86,-0.57 8.35,-1.73 2.48,-1.16 4.59,-2.74 6.31,-4.73 1.73,-1.96 3.05,-4.33 3.97,-7.05 0.92,-2.7 1.37,-5.63 1.37,-8.75 0,-3 -0.45,-5.89 -1.37,-8.63 -0.92,-2.74 -2.25,-5.15 -3.97,-7.21 -1.73,-2.08 -3.83,-3.74 -6.31,-4.94 -2.48,-1.2 -5.27,-1.8 -8.35,-1.8 -3.17,0 -6.01,0.59 -8.54,1.8 -2.53,1.21 -4.68,2.86 -6.46,4.94 -1.77,2.06 -3.14,4.47 -4.11,7.21 -0.97,2.74 -1.47,5.63 -1.47,8.63zm-85.21 16.93c1.28,1.28 2.67,2.34 4.16,3.22 1.49,0.87 2.91,1.58 4.28,2.13 1.37,0.54 2.58,0.95 3.62,1.18 1.04,0.24 1.75,0.35 2.13,0.35 0.9,0 2.06,-0.05 3.45,-0.12 1.39,-0.07 2.72,-0.28 4,-0.64 1.28,-0.35 2.39,-0.92 3.31,-1.72 0.92,-0.81 1.37,-1.94 1.37,-3.41 0,-1.33 -0.26,-2.39 -0.78,-3.17 -0.52,-0.78 -1.28,-1.44 -2.27,-1.99 -0.99,-0.54 -2.2,-1.02 -3.64,-1.44 -1.44,-0.43 -3.07,-0.92 -4.87,-1.49 -5.68,-1.51 -10.36,-3.33 -14.05,-5.46 -3.69,-2.13 -6.6,-4.52 -8.75,-7.14 -2.15,-2.62 -3.66,-5.44 -4.52,-8.46 -0.85,-3.03 -1.28,-6.22 -1.28,-9.58 0,-3.93 0.78,-7.5 2.34,-10.71 1.56,-3.22 3.78,-5.98 6.67,-8.28 2.89,-2.29 6.34,-4.07 10.36,-5.32 4.02,-1.25 8.49,-1.87 13.41,-1.87 2.98,0 5.77,0.24 8.37,0.73 2.6,0.5 5.08,1.28 7.45,2.34 2.36,1.06 4.68,2.43 6.93,4.11 2.25,1.68 4.47,3.69 6.69,6.01 0.8,0.95 1.23,1.82 1.25,2.65 0.02,0.83 -0.52,1.73 -1.61,2.67 -1.84,1.51 -3.59,3 -5.27,4.47 -1.68,1.47 -3.43,3.1 -5.23,4.9 -0.57,0.47 -1.13,0.76 -1.7,0.87 -0.57,0.12 -1.11,0.12 -1.63,-0.02 -0.52,-0.14 -1.02,-0.38 -1.49,-0.71 -0.47,-0.33 -0.9,-0.73 -1.28,-1.2 -1.66,-1.85 -3.55,-3.1 -5.68,-3.74 -2.13,-0.64 -4.12,-0.95 -5.96,-0.95 -2.32,0 -4.16,0.4 -5.53,1.21 -1.37,0.81 -2.01,2.03 -1.92,3.69 0.1,1.23 0.57,2.18 1.4,2.86 0.83,0.68 1.84,1.25 3.05,1.68 1.2,0.43 2.48,0.76 3.83,1.02 1.35,0.26 2.58,0.57 3.71,0.9 4.26,1.37 8.16,2.86 11.7,4.47 3.55,1.61 6.62,3.57 9.22,5.91 2.6,2.34 4.63,5.15 6.08,8.42 1.44,3.26 2.15,7.24 2.15,11.92 0,4.68 -0.92,8.87 -2.79,12.56 -1.87,3.69 -4.44,6.79 -7.71,9.29 -3.26,2.51 -7.12,4.42 -11.59,5.75 -4.47,1.32 -9.29,1.99 -14.45,1.99 -2.93,0 -5.91,-0.26 -8.94,-0.78 -3.03,-0.52 -5.96,-1.37 -8.8,-2.53 -2.84,-1.16 -5.53,-2.65 -8.09,-4.47 -2.55,-1.82 -4.82,-4.02 -6.81,-6.62 -0.52,-0.66 -0.9,-1.37 -1.16,-2.1 -0.26,-0.73 -0.38,-1.44 -0.35,-2.15 0.02,-0.71 0.17,-1.37 0.43,-1.96 0.26,-0.59 0.66,-1.09 1.23,-1.51l9.15 -9.15c1.13,-0.95 2.15,-1.28 3.03,-0.99 0.87,0.29 1.99,1.09 3.36,2.41zm-88.26 -16.93c0,3.12 0.5,6.05 1.47,8.75 0.97,2.72 2.34,5.08 4.11,7.05 1.77,1.99 3.93,3.57 6.45,4.73 2.53,1.16 5.37,1.73 8.54,1.73 3.08,0 5.87,-0.57 8.35,-1.73 2.48,-1.16 4.59,-2.74 6.31,-4.73 1.73,-1.96 3.05,-4.33 3.97,-7.05 0.92,-2.7 1.37,-5.63 1.37,-8.75 0,-3 -0.45,-5.89 -1.37,-8.63 -0.92,-2.74 -2.25,-5.15 -3.97,-7.21 -1.73,-2.08 -3.83,-3.74 -6.31,-4.94 -2.48,-1.2 -5.27,-1.8 -8.35,-1.8 -3.17,0 -6.01,0.59 -8.54,1.8 -2.53,1.21 -4.68,2.86 -6.45,4.94 -1.77,2.06 -3.15,4.47 -4.11,7.21 -0.97,2.74 -1.47,5.63 -1.47,8.63zm-227.9 -77c-3.05,-5.7 -8.77,-9.53 -15.33,-9.53 -9.75,0 -17.66,8.48 -17.66,18.94 0,6.1 2.69,11.54 6.87,15 3.29,-5.53 7.76,-12.03 12.85,-16.86 -1.93,-3.16 -6.25,-8.38 -12.64,-6.1 0,0 8.58,-8.26 18.28,1.71 1.15,-0.7 2.33,-1.28 3.51,-1.72 1.31,-0.49 2.69,-0.97 4.1,-1.44zm104.71 7.56c5.09,4.83 9.56,11.32 12.85,16.85 4.18,-3.46 6.87,-8.9 6.87,-15 0,-19.39 -24.05,-26.12 -32.98,-9.41 1.41,0.47 2.79,0.95 4.1,1.44 1.19,0.44 2.36,1.02 3.52,1.72 9.7,-9.97 18.27,-1.71 18.27,-1.71 -6.39,-2.28 -10.7,2.95 -12.64,6.1zm-42.19 53.21c-0.04,3.29 2.37,6.51 5.7,8.89 3.33,2.37 5.39,2.78 6.4,2.78 1.01,0 5.61,0 9.52,0 3.91,0 6.79,-3.77 7.61,-6.17 0.81,-2.39 2.4,-9.5 2.4,-9.5 0.36,-3.87 -3.45,-5.05 -4.79,-5.05 -1.34,0 -8.93,0 -14.09,0 -5.16,0 -6.86,-0.16 -9.44,1.61 -2.58,1.76 -3.27,4.16 -3.31,7.45zm20.35 -2.57c0,0 1.6,3.58 -0.64,5.92 -2.24,2.34 -6.99,2.37 -9.66,1.07 -2.67,-1.3 -4.91,-3.39 -4.46,-4.01 0.44,-0.61 6.04,-4.5 7.53,-5.4 1.48,-0.9 4.8,-1.74 7.97,-0.84 3.17,0.9 5.47,3.34 5.81,3.65 0.34,0.31 0.35,0.85 -0.44,1.41 -0.8,0.56 -0.93,1.23 -1.83,0.56 -0.9,-0.67 -3.69,-2.59 -4.27,-2.36zm-48.93 1.27c0,0 -0.07,4.48 -1.67,7.65 -1.6,3.17 -6.52,7.18 -6.52,7.18 0,0 0.17,1.39 -0.21,3.4 -0.38,2 -6.84,34.56 -7.42,38.21 -0.58,3.65 0.07,4.28 3.8,11.35 3.72,7.07 9.4,7.22 13.69,7.22l20.23 0c4.29,0 9.97,-0.15 13.69,-7.22 3.72,-7.07 4.37,-7.71 3.8,-11.35 -0.58,-3.65 -7.04,-36.2 -7.42,-38.21 -0.38,-2.01 -0.21,-3.4 -0.21,-3.4 0,0 -4.92,-4.01 -6.52,-7.18 -1.6,-3.17 -1.67,-7.65 -1.67,-7.65 -5.75,-2.64 -17.83,-2.64 -23.57,0zm-6.96 43.5c0,-3.76 2.98,-3.41 5.64,-3.41l26.2 0c2.66,0 5.64,-0.34 5.64,3.41 0,0.27 -0.04,0.57 -0.11,0.89 -0.04,0.09 -0.88,2.29 -2.56,4.71 -1.72,2.47 -2.56,3.29 -3.17,2.48 -0.61,-0.81 -3.47,-3.08 -5.34,-0.76 -1.87,2.32 -0.47,5.47 0.62,5.87 1.09,0.4 2.36,0.36 0.98,2.2 -9.29,10.32 -9.01,10.32 -18.31,0 -1.38,-1.84 -0.11,-1.79 0.98,-2.2 1.09,-0.4 2.49,-3.55 0.62,-5.87 -1.87,-2.32 -4.73,-0.04 -5.34,0.76 -0.61,0.81 -1.45,-0.01 -3.17,-2.48 -1.68,-2.42 -2.53,-4.61 -2.57,-4.71 -0.07,-0.33 -0.11,-0.63 -0.11,-0.89zm1.95 -42.2c-0.04,-3.29 -0.73,-5.69 -3.31,-7.45 -2.58,-1.76 -4.28,-1.61 -9.44,-1.61 -5.16,0 -12.75,0 -14.09,0 -1.34,0 -5.15,1.18 -4.79,5.05 0,0 1.59,7.11 2.4,9.5 0.81,2.39 3.69,6.17 7.61,6.17 3.91,0 8.51,0 9.52,0 1.01,0 3.07,-0.4 6.4,-2.78 3.33,-2.37 5.74,-5.6 5.7,-8.89zm-13.12 -4.99c1.48,0.9 7.09,4.79 7.53,5.4 0.44,0.61 -1.79,2.7 -4.46,4.01 -2.68,1.3 -7.42,1.27 -9.66,-1.07 -2.24,-2.34 -0.64,-5.92 -0.64,-5.92 -0.58,-0.23 -3.37,1.69 -4.27,2.36 -0.9,0.67 -1.03,0 -1.83,-0.56 -0.8,-0.57 -0.79,-1.11 -0.44,-1.41 0.34,-0.31 2.64,-2.74 5.81,-3.65 3.17,-0.9 6.49,-0.06 7.97,0.84zm-13.76 -8.81c3.43,0 15.95,0 18.54,0 2.59,0 7.31,0.5 10.3,4.08 0.97,1.16 1.56,2.2 1.92,3.09 3.28,-1.44 8.94,-1.82 9.74,-1.82 2.11,0 4.21,0 6.32,0 0.8,0 6.46,0.38 9.74,1.82 0.36,-0.89 0.96,-1.93 1.92,-3.09 3,-3.58 7.71,-4.08 10.3,-4.08 2.59,0 15.12,0 18.54,0 3.43,0 6.4,1 8.35,4.33 1.95,3.33 1.18,5.24 -0.09,12.58 -1.27,7.34 -5.08,11.26 -10.57,12.71 -4.16,1.09 -9.89,0.75 -12.42,0.52l7.95 43.72c0,0 -6.29,15.61 -14.04,19.51 -8.27,4.17 -37.45,4.17 -45.72,0 -7.75,-3.91 -14.04,-19.51 -14.04,-19.51l7.95 -43.72c-2.53,0.23 -8.26,0.57 -12.42,-0.52 -5.5,-1.45 -9.3,-5.37 -10.57,-12.71 -1.27,-7.34 -2.04,-9.25 -0.09,-12.58 1.95,-3.33 4.93,-4.33 8.36,-4.33z"/>
 </g>
</svg>
